# Blender v2.77 (sub 0) OBJ File: 'Slider.blend'
# www.blender.org
mtllib Slider.mtl
g Slider
v -0.020000 0.010099 -0.040000
v 0.020000 0.010099 -0.040000
v -0.020000 0.025818 -0.019931
v 0.020000 0.000000 -0.019931
v 0.020000 0.025818 -0.019931
v -0.020000 0.000000 -0.019931
v -0.020000 0.032603 -0.029966
v 0.020000 0.000000 -0.029966
v 0.020000 0.032603 -0.029966
v -0.020000 0.000000 -0.029966
v 0.020000 0.018966 -0.009966
v -0.020000 0.000000 -0.009966
v -0.020000 0.018966 -0.009966
v 0.020000 0.000000 -0.009966
v -0.020000 0.025509 -0.034983
v 0.020000 0.000000 -0.034983
v 0.020000 0.025509 -0.034983
v -0.020000 0.000000 -0.034983
v 0.020000 0.032603 -0.027024
v -0.020000 0.000000 -0.027024
v -0.020000 0.032603 -0.027024
v 0.020000 0.000000 -0.027024
v -0.020000 0.010099 0.040000
v 0.020000 0.010099 0.040000
v -0.020000 0.016380 0.000000
v 0.020000 0.016380 0.000000
v 0.020000 0.000000 0.000000
v -0.020000 0.000000 0.000000
v -0.020000 0.022855 0.019931
v 0.020000 0.000000 0.019931
v 0.020000 0.022855 0.019931
v -0.020000 0.000000 0.019931
v -0.020000 0.027204 0.029966
v 0.020000 0.000000 0.029966
v 0.020000 0.027204 0.029966
v -0.020000 0.000000 0.029966
v 0.020000 0.018463 0.009966
v -0.020000 0.000000 0.009966
v -0.020000 0.018463 0.009966
v 0.020000 0.000000 0.009966
v -0.020000 0.022657 0.034983
v 0.020000 0.000000 0.034983
v 0.020000 0.022657 0.034983
v -0.020000 0.000000 0.034983
v 0.020000 0.027204 0.027024
v -0.020000 0.000000 0.027024
v -0.020000 0.027204 0.027024
v 0.020000 0.000000 0.027024
vn -1.0000 0.0000 0.0000
vn 0.0000 0.3096 -0.9509
vn 1.0000 0.0000 0.0000
vn 0.0000 0.8240 0.5666
vn 0.0000 -1.0000 0.0000
vn 0.0000 1.0000 0.0000
vn 0.0000 0.9679 0.2512
vn 0.0000 -0.4449 -0.8956
vn 0.0000 0.5774 -0.8164
vn 0.0000 0.7227 0.6912
vn 0.0000 0.3710 0.9286
vn 0.0000 0.9151 -0.4033
vn 0.0000 0.9788 -0.2046
vn 0.0000 -0.4449 0.8956
vn 0.0000 0.7410 0.6715
vn 0.0000 0.8525 -0.5227
usemtl None
s off
f 1//1 18//1 15//1
f 17//2 2//2 1//2 15//2
f 16//3 2//3 17//3
f 11//3 26//3 27//3 14//3
f 19//3 5//3 4//3 22//3
f 13//1 3//1 6//1 12//1
f 11//4 5//4 3//4 13//4
f 12//5 6//5 4//5 14//5
f 17//3 9//3 8//3 16//3
f 21//1 7//1 10//1 20//1
f 19//6 9//6 7//6 21//6
f 20//5 10//5 8//5 22//5
f 28//5 12//5 14//5 27//5
f 26//7 11//7 13//7 25//7
f 25//1 13//1 12//1 28//1
f 5//3 11//3 14//3 4//3
f 2//8 16//8 18//8 1//8
f 7//1 15//1 18//1 10//1
f 9//9 17//9 15//9 7//9
f 10//5 18//5 16//5 8//5
f 6//5 20//5 22//5 4//5
f 5//10 19//10 21//10 3//10
f 3//1 21//1 20//1 6//1
f 9//3 19//3 22//3 8//3
f 23//1 41//1 44//1
f 43//11 41//11 23//11 24//11
f 42//3 43//3 24//3
f 37//3 40//3 27//3 26//3
f 45//3 48//3 30//3 31//3
f 39//1 38//1 32//1 29//1
f 37//12 39//12 29//12 31//12
f 38//5 40//5 30//5 32//5
f 43//3 42//3 34//3 35//3
f 47//1 46//1 36//1 33//1
f 45//6 47//6 33//6 35//6
f 46//5 48//5 34//5 36//5
f 28//5 27//5 40//5 38//5
f 26//13 25//13 39//13 37//13
f 25//1 28//1 38//1 39//1
f 31//3 30//3 40//3 37//3
f 24//14 23//14 44//14 42//14
f 33//1 36//1 44//1 41//1
f 35//15 33//15 41//15 43//15
f 36//5 34//5 42//5 44//5
f 32//5 30//5 48//5 46//5
f 31//16 29//16 47//16 45//16
f 29//1 32//1 46//1 47//1
f 35//3 34//3 48//3 45//3
