# Blender v2.77 (sub 0) OBJ File: 'ControlBase_Shield.blend'
# www.blender.org
mtllib ControlBase_Shield_Status.mtl
g ControlBase_Shield_Status
v 0.088902 0.022344 -0.059451
v 0.088902 0.022344 -0.010701
v 0.073878 0.058906 -0.059451
v 0.073878 0.058906 -0.041607
v -0.088902 0.022344 -0.059451
v -0.088902 0.022344 -0.010700
v -0.073878 0.058906 -0.059451
v -0.073878 0.058906 -0.041607
v -0.021880 0.065000 -0.374155
v 0.059776 0.065000 -0.352276
v 0.059776 0.065000 -0.232724
v 0.081655 0.065000 -0.314379
v 0.021880 0.065000 -0.210844
v -0.021880 0.065000 -0.210844
v -0.059776 0.065000 -0.352276
v 0.021879 0.065000 -0.374155
v 0.081655 0.065000 -0.270620
v -0.081655 0.065000 -0.314379
v -0.081655 0.065000 -0.270620
v -0.059776 0.065000 -0.232724
v -0.047285 0.065000 -0.339785
v 0.017308 0.065000 -0.357093
v 0.064593 0.065000 -0.275192
v -0.064593 0.065000 -0.309808
v -0.064593 0.065000 -0.275192
v -0.047285 0.065000 -0.245214
v -0.017308 0.065000 -0.357093
v 0.047285 0.065000 -0.339785
v 0.047285 0.065000 -0.245214
v 0.064593 0.065000 -0.309808
v 0.017308 0.065000 -0.227906
v -0.017308 0.065000 -0.227906
v -0.077751 0.058906 -0.059451
v -0.080901 0.057633 -0.056851
v -0.080901 0.057633 -0.043344
v -0.077751 0.058906 -0.041607
v -0.094879 0.023617 -0.056851
v -0.092776 0.022344 -0.059451
v -0.094879 0.023617 -0.014591
v -0.092776 0.022344 -0.010700
v 0.094879 0.023617 -0.014591
v 0.092780 0.022344 -0.010701
v 0.092779 0.022344 -0.059451
v 0.094879 0.023617 -0.056851
v 0.077755 0.058906 -0.059451
v 0.080901 0.057633 -0.056851
v 0.077755 0.058906 -0.041607
v 0.080901 0.057633 -0.043344
v 0.050140 0.071500 -0.242360
v 0.047285 0.069550 -0.245214
v 0.056921 0.071500 -0.235579
v 0.059776 0.069550 -0.232724
v 0.017308 0.069550 -0.357093
v 0.018353 0.071500 -0.360993
v 0.020834 0.071500 -0.370255
v 0.021879 0.069550 -0.374155
v -0.064593 0.069550 -0.309808
v -0.068493 0.071500 -0.310853
v -0.077755 0.071500 -0.313334
v -0.081655 0.069550 -0.314379
v -0.018353 0.071500 -0.224006
v -0.017308 0.069550 -0.227906
v -0.020835 0.071500 -0.214744
v -0.021880 0.069550 -0.210844
v 0.056921 0.071500 -0.349421
v 0.059776 0.069550 -0.352276
v 0.050140 0.071500 -0.342640
v 0.047285 0.069550 -0.339785
v -0.059776 0.069550 -0.232724
v -0.056921 0.071500 -0.235579
v -0.047285 0.069550 -0.245214
v -0.050140 0.071500 -0.242360
v -0.059776 0.069550 -0.352276
v -0.056921 0.071500 -0.349421
v -0.047285 0.069550 -0.339785
v -0.050140 0.071500 -0.342640
v -0.021880 0.069550 -0.374155
v -0.020835 0.071500 -0.370255
v -0.018353 0.071500 -0.360993
v -0.017308 0.069550 -0.357093
v 0.077755 0.071500 -0.313334
v 0.081655 0.069550 -0.314379
v 0.068493 0.071500 -0.310853
v 0.064593 0.069550 -0.309808
v 0.081655 0.069550 -0.270620
v 0.077755 0.071500 -0.271665
v -0.081655 0.069550 -0.270620
v -0.077755 0.071500 -0.271665
v 0.020835 0.071500 -0.214744
v 0.021880 0.069550 -0.210844
v 0.018353 0.071500 -0.224006
v 0.017308 0.069550 -0.227906
v -0.064593 0.069550 -0.275192
v -0.068493 0.071500 -0.274147
v 0.064593 0.069550 -0.275192
v 0.068493 0.071500 -0.274147
vt 0.1326 0.5800
vt 0.2316 0.7425
vt 0.1956 0.7794
vt 0.0854 0.5928
vt 0.9979 0.6192
vt 0.8640 0.8470
vt 0.8250 0.8076
vt 0.9446 0.6048
vt 0.8662 0.1281
vt 0.9999 0.3555
vt 0.9467 0.3702
vt 0.8280 0.1678
vt 0.4024 0.8416
vt 0.3888 0.8898
vt 0.5979 0.8429
vt 0.7670 0.7480
vt 0.8028 0.7850
vt 0.6101 0.8922
vt 0.8665 0.5827
vt 0.9141 0.5964
vt 0.1935 0.0004
vt 0.8090 0.0004
vt 0.7393 0.0520
vt 0.2470 0.0520
vt 0.2933 0.0884
vt 0.6815 0.0884
vt 0.4675 0.8781
vt 0.2933 0.8781
vt 0.2033 0.4093
vt 0.2027 0.5599
vt 0.1595 0.5727
vt 0.1599 0.3975
vt 0.4031 0.1328
vt 0.3915 0.0841
vt 0.6143 0.0848
vt 0.6011 0.1352
vt 0.7707 0.2261
vt 0.8060 0.1904
vt 0.3663 0.9742
vt 0.1351 0.8415
vt 0.1736 0.8019
vt 0.3805 0.9205
vt 0.0030 0.6157
vt 0.0001 0.3534
vt 0.0535 0.3676
vt 0.0556 0.6007
vt 0.8090 0.0004
vt 0.1935 0.0004
vt 0.2470 0.0520
vt 0.7393 0.0520
vt 0.5334 0.9940
vt 0.5007 0.9345
vt 0.6815 0.0884
vt 0.2933 0.0884
vt 0.2933 0.8781
vt 0.4675 0.8781
vt 0.1935 0.9940
vt 0.2470 0.9345
vt 0.5334 0.9940
vt 0.5007 0.9345
vt 0.5837 0.2084
vt 0.4213 0.2060
vt 0.4098 0.1605
vt 0.5941 0.1636
vt 0.1935 0.9940
vt 0.2470 0.9345
vt 0.2325 0.2257
vt 0.1972 0.1883
vt 0.5794 0.7702
vt 0.7151 0.6947
vt 0.7474 0.7272
vt 0.5912 0.8149
vt 0.7968 0.4103
vt 0.7195 0.2787
vt 0.7507 0.2461
vt 0.8406 0.3980
vt 0.2831 0.6877
vt 0.4226 0.7688
vt 0.4105 0.8138
vt 0.2515 0.7219
vt 0.1324 0.3897
vt 0.0842 0.3760
vt 0.6357 0.0001
vt 0.6222 0.0537
vt 0.7949 0.5630
vt 0.8392 0.5747
vt 0.2834 0.2795
vt 0.2517 0.2465
vt 0.6321 0.9767
vt 0.6180 0.9230
vt 0.1368 0.1255
vt 0.3704 0.0001
vt 0.3842 0.0537
vt 0.1753 0.1654
vt 0.8679 0.3910
vt 0.9164 0.3784
vn 0.0000 1.0000 0.0000
vn -0.0000 0.0000 -1.0000
vn 0.8660 0.0000 -0.5000
vn 0.0000 -1.0000 -0.0000
vn -0.9250 0.3801 0.0000
vn 0.5000 0.0000 -0.8660
vn -1.0000 0.0000 0.0000
vn -0.5000 0.0000 0.8660
vn 0.0000 0.6456 0.7637
vn 0.9250 0.3801 0.0000
vn -0.8660 0.0000 -0.5000
vn -0.5496 0.6594 0.5130
vn -0.5179 -0.8554 -0.0000
vn -0.3748 0.9271 0.0000
vn -0.6758 0.2777 -0.6827
vn 0.5186 -0.8550 -0.0000
vn 0.6763 0.2779 -0.6822
vn 0.3752 0.9269 0.0000
vn 0.5500 0.6593 0.5126
vn 0.5000 0.0000 0.8660
vn -0.8660 0.0000 0.5000
vn 1.0000 0.0000 -0.0000
vn 0.0000 0.0000 1.0000
vn 0.8660 0.0000 0.5000
vn -0.5000 0.0000 -0.8660
vn -0.0000 0.8944 -0.4472
vn 0.2236 0.8944 -0.3873
vn 0.3873 0.8944 0.2236
vn -0.2236 0.8944 -0.3873
vn -0.4472 0.8944 0.0000
vn -0.3873 0.8944 -0.2236
vn 0.3873 0.8944 -0.2236
vn 0.2236 0.8944 0.3873
vn 0.0000 0.8944 0.4472
vn -0.3873 0.8944 0.2236
vn -0.2236 0.8944 0.3873
vn 0.4472 0.8944 0.0000
usemtl None
s off
f 72/1/1 94/2/1 88/3/1 70/4/1
f 16/5/2 9/6/2 77/7/2 56/8/2
f 12/9/3 10/10/3 66/11/3 82/12/3
f 58/13/1 59/14/1 88/3/1 94/2/1
f 76/15/1 79/16/1 78/17/1 74/18/1
f 54/19/1 55/20/1 78/17/1 79/16/1
f 5/21/4 6/22/4 40/23/4 38/24/4
f 37/25/5 39/26/5 35/27/5 34/28/5
f 58/13/1 76/15/1 74/18/1 59/14/1
f 32/29/6 26/30/6 71/31/6 62/32/6
f 49/33/1 51/34/1 86/35/1 96/36/1
f 83/37/1 96/36/1 86/35/1 81/38/1
f 18/39/7 19/40/7 87/41/7 60/42/7
f 20/43/8 14/44/8 64/45/8 69/46/8
f 2/47/4 1/48/4 43/49/4 42/50/4
f 6/22/9 8/51/9 36/52/9 40/23/9
f 41/53/10 44/54/10 46/55/10 48/56/10
f 7/57/2 5/21/2 38/24/2 33/58/2
f 4/59/9 2/47/9 42/50/9 47/60/9
f 23/61/11 29/62/11 50/63/11 95/64/11
f 3/65/1 4/59/1 47/60/1 45/66/1
f 1/48/2 3/65/2 45/66/2 43/49/2
f 35/27/12 39/26/12 40/23/12 36/52/12
f 39/26/13 37/25/13 38/24/13 40/23/13
f 36/52/14 33/58/14 34/28/14 35/27/14
f 33/58/15 38/24/15 37/25/15 34/28/15
f 42/50/16 43/49/16 44/54/16 41/53/16
f 46/55/17 44/54/17 43/49/17 45/66/17
f 48/56/18 46/55/18 45/66/18 47/60/18
f 47/60/19 42/50/19 41/53/19 48/56/19
f 8/51/1 7/57/1 33/58/1 36/52/1
f 49/33/1 91/67/1 89/68/1 51/34/1
f 21/69/20 27/70/20 80/71/20 75/72/20
f 28/73/21 30/74/21 84/75/21 68/76/21
f 19/40/21 20/43/21 69/46/21 87/41/21
f 25/77/22 24/78/22 57/79/22 93/80/22
f 61/81/1 72/1/1 70/4/1 63/82/1
f 17/83/22 12/9/22 82/12/22 85/84/22
f 27/70/23 22/85/23 53/86/23 80/71/23
f 22/85/8 28/73/8 68/76/8 53/86/8
f 31/87/2 32/29/2 62/32/2 92/88/2
f 15/89/11 18/39/11 60/42/11 73/90/11
f 26/30/3 25/77/3 93/80/3 71/31/3
f 13/91/20 11/92/20 52/93/20 90/94/20
f 54/19/1 67/95/1 65/96/1 55/20/1
f 14/44/23 13/91/23 90/94/23 64/45/23
f 61/81/1 63/82/1 89/68/1 91/67/1
f 24/78/24 21/69/24 75/72/24 57/79/24
f 11/92/24 17/83/24 85/84/24 52/93/24
f 30/74/7 23/61/7 95/64/7 84/75/7
f 9/6/25 15/89/25 73/90/25 77/7/25
f 67/95/1 83/37/1 81/38/1 65/96/1
f 10/10/6 16/5/6 56/8/6 66/11/6
f 78/17/26 55/20/26 56/8/26 77/7/26
f 55/20/27 65/96/27 66/11/27 56/8/27
f 86/35/28 51/34/28 52/93/28 85/84/28
f 74/18/29 78/17/29 77/7/29 73/90/29
f 88/3/30 59/14/30 60/42/30 87/41/30
f 59/14/31 74/18/31 73/90/31 60/42/31
f 65/96/32 81/38/32 82/12/32 66/11/32
f 51/34/33 89/68/33 90/94/33 52/93/33
f 89/68/34 63/82/34 64/45/34 90/94/34
f 70/4/35 88/3/35 87/41/35 69/46/35
f 63/82/36 70/4/36 69/46/36 64/45/36
f 81/38/37 86/35/37 85/84/37 82/12/37
f 84/75/30 95/64/30 96/36/30 83/37/30
f 62/32/27 71/31/27 72/1/27 61/81/27
f 71/31/32 93/80/32 94/2/32 72/1/32
f 92/88/26 62/32/26 61/81/26 91/67/26
f 50/63/29 92/88/29 91/67/29 49/33/29
f 93/80/37 57/79/37 58/13/37 94/2/37
f 57/79/28 75/72/28 76/15/28 58/13/28
f 68/76/35 84/75/35 83/37/35 67/95/35
f 80/71/34 53/86/34 54/19/34 79/16/34
f 95/64/31 50/63/31 49/33/31 96/36/31
f 53/86/36 68/76/36 67/95/36 54/19/36
f 75/72/33 80/71/33 79/16/33 76/15/33
f 29/62/25 31/87/25 92/88/25 50/63/25
